# xmcd CD database file
#
# Track frame offsets:
# 150
# 18202
# 33290
# 48371
#
# Disc length: 883 seconds
#
# Revision: 1
# Processed by: cddbd v1.5.2PL0 Copyright (c) Steve Scherf et al.
#
# Submitted via: Thunderbird 3.0.3
#
DISCID=23037104
DTITLE=After School - 너 때문에
DYEAR=2009
DGENRE=KPop
TTITLE0=너 때문에
TTITLE1=When I Fall
TTITLE2=Diva
TTITLE3=너 때문에 [Instrumental]
EXTD=
EXTT0=
EXTT1=
EXTT2=
EXTT3=
PLAYORDER=
